<?xml version="1.0" encoding="UTF-8" standalone="no"?>
<!-- Created by diasvg.py -->
<svg width="14.777cm" height="12.427cm" viewBox="8.020 4.135 22.797 16.562"
 xmlns="http://www.w3.org/2000/svg"
 xmlns:xlink="http://www.w3.org/1999/xlink">
<ellipse cx="20.793" cy="9.732" rx="1.953" ry="4.852" fill="#FFFFFF" stroke="none"  /><ellipse cx="20.793" cy="9.732" rx="1.953" ry="4.852" fill="none" stroke="#000000"  stroke-width="0.100" /><text x="20.802" y="7.009"  fill="#000000" text-anchor="start" font-size="0.80" font-family="sans" font-style="normal" font-weight="400">
d</text>
<text x="20.802" y="8.459"  fill="#000000" text-anchor="start" font-size="0.80" font-family="sans" font-style="normal" font-weight="400">
e</text>
<text x="20.802" y="9.695"  fill="#000000" text-anchor="start" font-size="0.80" font-family="sans" font-style="normal" font-weight="400">
f</text>
<text x="20.802" y="11.358"  fill="#000000" text-anchor="start" font-size="0.80" font-family="sans" font-style="normal" font-weight="400">
g</text>
<text x="21.005" y="12.807"  fill="#000000" text-anchor="middle" font-size="0.80" font-family="sans" font-style="normal" font-weight="400">
h</text>
<text x="18.570" y="5.695"  fill="#000000" text-anchor="start" font-size="1.76" font-family="sans" font-style="normal" font-weight="400">
Y</text>
<ellipse cx="10.463" cy="9.517" rx="1.953" ry="4.852" fill="#FFFFFF" stroke="none"  /><ellipse cx="10.463" cy="9.517" rx="1.953" ry="4.852" fill="none" stroke="#000000"  stroke-width="0.100" /><text x="10.673" y="9.595"  fill="#000000" text-anchor="end" font-size="0.80" font-family="sans" font-style="normal" font-weight="400">
b</text>
<text x="10.658" y="8.029"  fill="#000000" text-anchor="end" font-size="0.80" font-family="sans" font-style="normal" font-weight="400">
a</text>
<text x="10.618" y="11.079"  fill="#000000" text-anchor="end" font-size="0.80" font-family="sans" font-style="normal" font-weight="400">
c</text>
<text x="8.020" y="5.445"  fill="#000000" text-anchor="start" font-size="1.76" font-family="sans" font-style="normal" font-weight="400">
X</text>
<line x1="10.770" y1="8.045" x2="20.414" y2="12.504" stroke="#000000" stroke-width="0.100" />
<polygon fill="#000000" stroke="none" stroke-width="0.100" points="20.619,12.598 20.283,12.608 20.414,12.504 20.409,12.336 "/>
<polygon fill="none" stroke="#000000" stroke-width="0.100"  points="20.619,12.598 20.283,12.608 20.414,12.504 20.409,12.336 "/>
<line x1="10.870" y1="9.545" x2="20.486" y2="8.385" stroke="#000000" stroke-width="0.100" />
<polygon fill="#000000" stroke="none" stroke-width="0.100" points="20.709,8.358 20.429,8.543 20.486,8.385 20.393,8.245 "/>
<polygon fill="none" stroke="#000000" stroke-width="0.100"  points="20.709,8.358 20.429,8.543 20.486,8.385 20.393,8.245 "/>
<line x1="10.920" y1="10.995" x2="20.259" y2="7.075" stroke="#000000" stroke-width="0.100" />
<polygon fill="#000000" stroke="none" stroke-width="0.100" points="20.467,6.988 20.248,7.243 20.259,7.075 20.132,6.966 "/>
<polygon fill="none" stroke="#000000" stroke-width="0.100"  points="20.467,6.988 20.248,7.243 20.259,7.075 20.132,6.966 "/>
<text x="13.120" y="16.295"  fill="#000000" text-anchor="start" font-size="1.41" font-family="sans" font-style="normal" font-weight="400">
f : X → Y</text>
</svg>